IKResults
version=1
nRows=10
nColumns=40
inDegrees=yes

Units are S.I. units (second, meters, Newtons, ...)
Angles are in degrees.

endheader
time	pelvis_tilt	pelvis_list	pelvis_rotation	pelvis_tx	pelvis_ty	pelvis_tz	hip_flexion_r	hip_adduction_r	hip_rotation_r	knee_angle_r	knee_angle_r_beta	ankle_angle_r	subtalar_angle_r	mtp_angle_r	hip_flexion_l	hip_adduction_l	hip_rotation_l	knee_angle_l	knee_angle_l_beta	ankle_angle_l	subtalar_angle_l	mtp_angle_l	lumbar_extension	lumbar_bending	lumbar_rotation	arm_flex_r	arm_add_r	arm_rot_r	elbow_flex_r	pro_sup_r	wrist_flex_r	wrist_dev_r	arm_flex_l	arm_add_l	arm_rot_l	elbow_flex_l	pro_sup_l	wrist_flex_l	wrist_dev_l
      2.04000000	     16.37764153	      3.54182870	     -4.91066835	      0.03202528	      0.92928267	      1.02510180	    -28.95229064	     -5.39979631	     -9.44662594	    -19.58559543	     -0.34183313	     13.48521171	      0.46031883	     -4.15919596	      0.40942567	     -0.87667130	     25.89466134	    -14.71807319	     -0.25687884	     -2.39881245	     -8.85432129	     -8.29351088	    -20.92767870	     -6.09757452	      5.60788172	     -2.29399654	    -12.17256835	     -2.25082928	     42.82418772	     89.95437384	      0.00000000	      0.00000000	     -9.75689940	      7.04651564	     18.25085101	     14.97984895	     89.95437384	      0.00000000	      0.00000000
      2.05000000	     16.30551667	      3.68123257	     -4.89607615	      0.03907194	      0.93006214	      1.02351122	    -28.95900196	     -5.68421303	     -9.22306386	    -20.20279171	     -0.35260523	     12.83565054	      0.30675674	     -4.05013469	      0.26894745	     -1.09827196	     25.60258053	    -15.17860363	     -0.26491661	     -2.05334315	     -8.69513852	     -8.25160337	    -20.76779194	     -6.24731676	      5.50776065	     -2.30583911	    -11.99696207	     -2.26363018	     42.05852327	     89.95437384	      0.00000000	      0.00000000	     -9.57500673	      7.06331722	     18.07287240	     14.94520667	     89.95437384	      0.00000000	      0.00000000
      2.06000000	     16.21032657	      3.81862910	     -4.95727875	      0.04614935	      0.93106622	      1.02202420	    -28.87936813	     -5.99245612	     -8.85563783	    -20.89248203	     -0.36464260	     11.89975777	     -0.02112168	     -3.87422529	      0.02710657	     -1.40584470	     25.20762719	    -15.36776973	     -0.26821818	     -1.74684283	     -8.59396703	     -8.22942123	    -20.53910262	     -6.41909534	      5.50322235	     -2.32738837	    -11.79446167	     -2.34123009	     41.20007919	     89.95437384	      0.00000000	      0.00000000	     -9.39911512	      7.09043531	     17.82747235	     14.93515956	     89.95437384	      0.00000000	      0.00000000
      2.07000000	     16.15564135	      3.90185971	     -4.97785196	      0.05322536	      0.93232162	      1.02040574	    -28.76908216	     -6.22522385	     -8.44181135	    -21.70034945	     -0.37874255	     10.91512417	     -0.41265569	     -3.68144703	     -0.35513216	     -1.72023198	     24.77146873	    -15.38931720	     -0.26859425	     -1.45258756	     -8.55615906	     -8.20113154	    -20.39433819	     -6.50219423	      5.47719554	     -2.38161533	    -11.64393051	     -2.31649804	     40.42348468	     89.95437384	      0.00000000	      0.00000000	     -9.16897321	      7.09488893	     17.55890873	     14.94586291	     89.95437384	      0.00000000	      0.00000000
      2.08000000	     16.20485219	      4.06226972	     -5.26934453	      0.06049713	      0.93395086	      1.01896775	    -28.73474786	     -6.57283665	     -7.56926268	    -22.42242359	     -0.39134512	      9.39350599	     -2.10917281	     -3.16016291	     -1.27474966	     -2.35038886	     24.24447767	    -14.52471255	     -0.25350406	     -1.50734999	     -8.12442209	     -8.32756697	    -20.28408204	     -6.74575692	      5.71261291	     -2.55018997	    -11.60694799	     -2.19600215	     39.78286165	     89.95437384	      0.00000000	      0.00000000	     -9.00947987	      7.11371708	     17.08049631	     15.19459007	     89.95437384	      0.00000000	      0.00000000
      2.09000000	     16.14500578	      3.88091808	     -5.18936440	      0.06746204	      0.93536711	      1.01732794	    -28.49132570	     -6.50775052	     -7.24713725	    -23.41569356	     -0.40868095	      8.41167124	     -2.26805261	     -2.98692793	     -1.76331058	     -2.34737153	     24.07282657	    -14.41465374	     -0.25158317	     -1.13370235	     -8.02919853	     -8.27921555	    -20.16677919	     -6.52127140	      5.64410125	     -2.58274668	    -11.51978840	     -2.12223533	     39.02529304	     89.95437384	      0.00000000	      0.00000000	     -8.76130593	      7.11682045	     16.84251961	     15.31079893	     89.95437384	      0.00000000	      0.00000000
      2.10000000	     16.14391941	      3.68324953	     -5.30721096	      0.07440800	      0.93688530	      1.01585121	    -28.17325849	     -6.55500554	     -6.87800860	    -24.54831832	     -0.42844898	      6.95187820	     -2.57127178	     -2.73058416	     -2.47469340	     -2.40251102	     23.95221673	    -14.00233944	     -0.24438693	     -0.79821019	     -8.10203348	     -8.26099351	    -20.07358102	     -6.33341795	      5.77641425	     -2.61560433	    -11.53265738	     -1.83343908	     38.29244185	     89.95437384	      0.00000000	      0.00000000	     -8.52080758	      7.09337547	     16.56661964	     15.51316589	     89.95437384	      0.00000000	      0.00000000
      2.11000000	     16.16702499	      3.46921195	     -5.36786767	      0.08134908	      0.93836294	      1.01426932	    -27.85078122	     -6.56278861	     -6.55613213	    -25.73554416	     -0.44916998	      5.65405556	     -2.84966383	     -2.50152904	     -3.22756735	     -2.42333081	     24.02792491	    -13.57609376	     -0.23694754	     -0.56317833	     -8.16345521	     -8.22390270	    -20.03129679	     -6.10625770	      5.80452679	     -2.67288541	    -11.54035820	     -1.58670619	     37.70080285	     89.95437384	      0.00000000	      0.00000000	     -8.28591259	      7.06333432	     16.40671235	     15.79096423	     89.95437384	      0.00000000	      0.00000000
      2.12000000	     16.32422663	      3.43641491	     -5.92304140	      0.08860881	      0.93993924	      1.01315288	    -27.54158933	     -6.96733842	     -5.85741404	    -26.93684821	     -0.47013669	      3.71278421	     -3.81183310	     -1.97531252	     -4.38810592	     -2.80247419	     24.36660302	    -12.58193914	     -0.21959626	     -0.79688658	     -8.52996348	     -8.33127451	    -20.01190714	     -6.22140784	      6.27771298	     -2.84081707	    -11.70808535	     -0.93267480	     37.19170589	     89.95437384	      0.00000000	      0.00000000	     -8.10856139	      7.01296249	     16.24170936	     16.19145670	     89.95437384	      0.00000000	      0.00000000
      2.13000000	     16.39197277	      3.13770069	     -6.05088257	      0.09537930	      0.94120561	      1.01175901	    -27.04347054	     -6.95365301	     -5.62021206	    -28.39878596	     -0.49565232	      2.15472873	     -4.08885017	     -1.62870551	     -5.14822832	     -2.71106479	     24.53344103	    -12.24140789	     -0.21365287	     -0.60374500	     -8.68258013	     -8.35424471	    -20.03892113	     -5.94441859	      6.35019551	     -2.83160703	    -11.72775172	     -0.64129940	     36.60188544	     89.95437384	      0.00000000	      0.00000000	     -7.86217200	      6.98645525	     16.15728994	     16.58457037	     89.95437384	      0.00000000	      0.00000000
